<svg xmlns="http://www.w3.org/2000/svg" fill="none" width="512" height="512" viewBox="0 0 512 512">
    <path
        fill="#e4f2ff"
        d="M412.29 416 375.031 415.217 320.516 316.906 338.165 284.005 412.29 416ZM237.763 102.659 308.358 229.562 307.574 233.087 291.886 262.071 290.317 263.246 233.449 161.41 91.474 415.608H55L233.057 96 237.763 102.659Z"
    />
    <path
        fill="#e4f2ff"
        d="M457 175.902L439.351 207.628L368.756 208.02L351.892 239.745H420.918L413.466 254.629L403.661 272.255H333.459L275.021 378.399L273.06 376.832L233.841 305.547L192.66 378.791L158.147 317.297L175.796 284.005L191.876 312.597H193.445L233.057 240.137L274.629 312.989L350.323 175.51L457 175.902Z"
    />
</svg>
