<svg xmlns="http://www.w3.org/2000/svg" fill="none" viewBox="0 0 910 512">
    <path fill="#2c3e4e" d="M0 0H910V512H0z"/>
    <path fill="#e4f2ff" d="M611.29 416 574.031 415.217 519.516 316.906 537.165 284.005 611.29 416ZM436.763 102.659 507.358 229.562 506.574 233.087 490.886 262.071 489.317 263.246 432.449 161.41 290.474 415.608H254L432.057 96 436.763 102.659Z"/>
    <path fill="#e4f2ff" d="M656 175.902L638.351 207.628L567.756 208.02L550.892 239.745H619.918L612.466 254.629L602.661 272.255H532.459L474.021 378.399L472.06 376.832L432.841 305.547L391.66 378.791L357.147 317.297L374.796 284.005L390.876 312.597H392.445L432.057 240.137L473.629 312.989L549.323 175.51L656 175.902Z"/>
</svg>
